<?xml version="1.0" encoding="UTF-8" standalone="no"?>
<!-- Created with Inkscape (http://www.inkscape.org/) -->

<svg
   version="1.1"
   id="svg1"
   width="2749.8"
   height="1001.7867"
   viewBox="0 0 2749.8 1001.7867"
   sodipodi:docname="EDGI_Logo-Horiz_Vector-01.eps"
   xmlns:inkscape="http://www.inkscape.org/namespaces/inkscape"
   xmlns:sodipodi="http://sodipodi.sourceforge.net/DTD/sodipodi-0.dtd"
   xmlns="http://www.w3.org/2000/svg"
   xmlns:svg="http://www.w3.org/2000/svg">
  <defs
     id="defs1" />
  <sodipodi:namedview
     id="namedview1"
     pagecolor="#ffffff"
     bordercolor="#000000"
     borderopacity="0.25"
     inkscape:showpageshadow="2"
     inkscape:pageopacity="0.0"
     inkscape:pagecheckerboard="0"
     inkscape:deskcolor="#d1d1d1">
    <inkscape:page
       x="0"
       y="0"
       inkscape:label="1"
       id="page1"
       width="2749.8"
       height="1001.7867"
       margin="0"
       bleed="0" />
  </sodipodi:namedview>
  <g
     id="g1"
     inkscape:groupmode="layer"
     inkscape:label="1">
    <g
       id="group-R5">
      <path
         id="path2"
         d="m 8061.03,3598.86 h -414.28 v 919.07 h 414.28 v -147.69 h -243.29 v -218.76 h 225.68 v -148.36 h -225.68 v -254.64 h 243.29 v -149.62"
         style="fill:#393536;fill-opacity:1;fill-rule:nonzero;stroke:none"
         transform="matrix(0.13333333,0,0,-0.13333333,0,1001.7867)" />
      <path
         id="path3"
         d="m 8533.75,3598.86 v 417.43 c 0,50.77 -6.09,89.06 -18.23,115.07 -12.13,25.92 -31.87,38.98 -59.09,38.98 -36.03,0 -62.43,-17.99 -79.21,-53.77 -16.78,-35.88 -25.14,-96.32 -25.14,-181.34 v -336.37 h -167.23 v 700.3 h 132.65 l 20.11,-89.85 h 10.7 c 15.08,32.21 36.64,57.46 64.75,75.73 28.08,18.19 60.97,27.38 98.69,27.38 63.68,0 111.37,-21.87 142.99,-65.38 31.67,-43.62 47.48,-107.35 47.48,-191.11 v -457.07 h -168.47"
         style="fill:#393536;fill-opacity:1;fill-rule:nonzero;stroke:none"
         transform="matrix(0.13333333,0,0,-0.13333333,0,1001.7867)" />
      <path
         id="path4"
         d="m 8949.27,3598.86 -182.93,700.3 h 173.5 l 89.27,-405.41 c 3.77,-18.86 8.26,-46.43 13.54,-82.7 5.22,-36.27 8.45,-62.37 9.72,-78.24 h 2.51 c 0.44,12.58 2.18,30.57 5.36,54.07 3.11,23.4 6.39,45.07 9.73,64.69 3.34,19.75 35.64,168.95 96.82,447.59 h 173.49 l -183.56,-700.3 h -207.45"
         style="fill:#393536;fill-opacity:1;fill-rule:nonzero;stroke:none"
         transform="matrix(0.13333333,0,0,-0.13333333,0,1001.7867)" />
      <path
         id="path5"
         d="m 9579.79,3598.86 h -167.22 v 700.3 h 167.22 z m -174.14,883.29 c 0,27.65 8.09,49.51 24.18,65.66 16.16,16.15 38.7,24.18 67.6,24.18 27.23,0 49.04,-8.03 65.38,-24.18 16.35,-16.15 24.52,-38.01 24.52,-65.66 0,-28.54 -8.37,-50.69 -25.14,-66.35 -16.79,-15.76 -38.35,-23.6 -64.76,-23.6 -27.65,0 -49.84,7.84 -66.62,23.6 -16.8,15.66 -25.16,37.81 -25.16,66.35"
         style="fill:#393536;fill-opacity:1;fill-rule:nonzero;stroke:none"
         transform="matrix(0.13333333,0,0,-0.13333333,0,1001.7867)" />
      <path
         id="path6"
         d="m 10021.7,4312.42 c 20.6,0 40.7,-3.19 60.4,-9.49 l -19.5,-162.19 c -11.8,4.27 -27.1,6.3 -45.9,6.3 -40.68,0 -71.88,-16.07 -93.67,-48.08 -21.82,-32.1 -32.7,-78.71 -32.7,-139.84 v -360.26 h -167.21 v 700.3 h 137.66 l 18.87,-109.38 h 5.65 c 18.43,44.01 38.55,75.44 60.35,94.3 21.81,18.85 47.14,28.34 76.05,28.34"
         style="fill:#393536;fill-opacity:1;fill-rule:nonzero;stroke:none"
         transform="matrix(0.13333333,0,0,-0.13333333,0,1001.7867)" />
      <path
         id="path7"
         d="m 10303.3,3950.32 c 0,-72.92 8,-128.05 23.9,-165.38 15.9,-37.23 41.5,-55.9 76.7,-55.9 67.1,0 100.6,73.7 100.6,221.28 0,73.31 -8.1,128.15 -24.2,164.32 -16.1,36.27 -41.6,54.44 -76.4,54.44 -35.2,0 -60.8,-18.17 -76.7,-54.44 -15.9,-36.17 -23.9,-91.01 -23.9,-164.32 z m 372.2,0 c 0,-114.89 -24.3,-204.26 -72.9,-268.17 -48.6,-63.84 -115.3,-95.85 -199.9,-95.85 -53.7,0 -101,14.69 -142.1,44 -41.1,29.4 -72.7,71.57 -94.9,126.69 -22.2,55.14 -33.3,119.54 -33.3,193.33 0,113.54 24,202.32 72.2,266.15 48.3,63.93 115.1,95.95 200.6,95.95 82.5,0 148.2,-32.6 197.1,-97.78 48.8,-65.19 73.2,-153.29 73.2,-264.32"
         style="fill:#393536;fill-opacity:1;fill-rule:nonzero;stroke:none"
         transform="matrix(0.13333333,0,0,-0.13333333,0,1001.7867)" />
      <path
         id="path8"
         d="m 11141.9,3598.86 v 417.43 c 0,50.77 -6.1,89.06 -18.2,115.07 -12.1,25.92 -31.9,38.98 -59.1,38.98 -36,0 -62.4,-17.99 -79.2,-53.77 -16.8,-35.88 -25.1,-96.32 -25.1,-181.34 V 3598.86 H 10793 v 700.3 h 132.7 l 20.1,-89.85 h 10.7 c 15.1,32.21 36.6,57.46 64.7,75.73 28.1,18.19 61,27.38 98.7,27.38 63.7,0 111.4,-21.87 143,-65.38 31.7,-43.62 47.5,-107.35 47.5,-191.11 v -457.07 h -168.5"
         style="fill:#393536;fill-opacity:1;fill-rule:nonzero;stroke:none"
         transform="matrix(0.13333333,0,0,-0.13333333,0,1001.7867)" />
      <path
         id="path9"
         d="m 12140.8,3598.86 v 417.43 c 0,102.69 -25.3,154.05 -76,154.05 -36.9,0 -63.3,-18.38 -79.3,-55.03 -15.9,-36.65 -23.8,-95.45 -23.8,-176.31 v -340.14 h -168.5 v 417.43 c 0,102.69 -25.8,154.05 -77.3,154.05 -36.1,0 -62.3,-18.28 -78.6,-54.74 -16.4,-36.46 -24.5,-96.62 -24.5,-180.37 v -336.37 h -167.2 v 700.3 h 132.6 l 20.1,-89.85 h 10.7 c 16.8,35.59 39.7,61.71 68.8,78.25 29.2,16.53 60.3,24.86 93.4,24.86 85.5,0 142.5,-40.43 171,-121.38 h 6.3 c 35.6,80.95 92.8,121.38 171.6,121.38 62,0 109.1,-21.87 141.1,-65.38 32.1,-43.62 48.1,-107.35 48.1,-191.11 v -457.07 h -168.5"
         style="fill:#393536;fill-opacity:1;fill-rule:nonzero;stroke:none"
         transform="matrix(0.13333333,0,0,-0.13333333,0,1001.7867)" />
      <path
         id="path10"
         d="m 12678.3,4183.49 c -23.9,0 -43.6,-12.66 -59.1,-38 -15.5,-25.35 -24.5,-64.61 -27,-117.89 h 169.7 c -0.8,51.15 -8.6,89.94 -23.3,116.33 -14.6,26.41 -34.7,39.56 -60.3,39.56 z m 24.5,-597.19 c -87.6,0 -156.6,31.14 -207.1,93.32 -50.5,62.29 -75.8,150.39 -75.8,264.42 0,115.66 22.9,206 68.6,270.88 45.7,64.99 109.3,97.5 191.1,97.5 76.2,0 136.4,-27.76 180.4,-83.37 44,-55.52 66,-133.37 66,-233.47 v -89.26 h -336.3 c 1.2,-62.47 14,-108.9 38.3,-139.27 24.3,-30.36 57.8,-45.55 100.6,-45.55 54.5,0 110.2,16.93 167.2,50.87 v -137.62 c -53.6,-32.3 -118,-48.45 -193,-48.45"
         style="fill:#393536;fill-opacity:1;fill-rule:nonzero;stroke:none"
         transform="matrix(0.13333333,0,0,-0.13333333,0,1001.7867)" />
      <path
         id="path11"
         d="m 13385.5,3598.86 v 417.43 c 0,50.77 -6.1,89.06 -18.2,115.07 -12.2,25.92 -31.9,38.98 -59.1,38.98 -36,0 -62.4,-17.99 -79.2,-53.77 -16.8,-35.88 -25.2,-96.32 -25.2,-181.34 v -336.37 h -167.2 v 700.3 h 132.7 l 20.1,-89.85 h 10.7 c 15,32.21 36.6,57.46 64.7,75.73 28.1,18.19 61,27.38 98.7,27.38 63.7,0 111.4,-21.87 143,-65.38 31.6,-43.62 47.5,-107.35 47.5,-191.11 v -457.07 h -168.5"
         style="fill:#393536;fill-opacity:1;fill-rule:nonzero;stroke:none"
         transform="matrix(0.13333333,0,0,-0.13333333,0,1001.7867)" />
      <path
         id="path12"
         d="m 13932.4,3727.78 c 23.4,0 48.9,5.8 76.1,17.61 v -130.76 c -27.2,-18.85 -68.1,-28.33 -122.6,-28.33 -60.8,0 -105.8,18.18 -135.2,54.34 -29.3,36.28 -44,90.72 -44,163.16 v 362.77 h -67.9 v 74.76 l 87.4,60.35 42.8,148.36 h 106.9 v -150.88 h 126.9 v -132.59 h -126.9 v -368.38 c 0,-47 18.8,-70.41 56.5,-70.41"
         style="fill:#393536;fill-opacity:1;fill-rule:nonzero;stroke:none"
         transform="matrix(0.13333333,0,0,-0.13333333,0,1001.7867)" />
      <path
         id="path13"
         d="m 14304.6,3717.05 c 30.5,0 55,13.73 73.2,41.2 18.3,27.47 27.4,64.02 27.4,109.67 v 59.09 l -51.6,-2.51 c -38.2,-2.03 -66.1,-12.96 -83.9,-32.69 -17.8,-19.63 -26.7,-49.04 -26.7,-88.01 0,-57.83 20.5,-86.75 61.6,-86.75 z m 145.1,-118.19 -33.2,95.56 h -3.8 c -24.8,-41 -50.3,-69.34 -76.7,-84.81 -26.4,-15.58 -59.7,-23.31 -100,-23.31 -51.5,0 -92.1,19.33 -121.5,57.84 -29.6,38.58 -44.4,92.24 -44.4,160.92 0,73.8 20.2,128.53 60.7,164.41 40.4,35.78 100.9,55.62 181.3,59.39 l 93.1,3.76 v 50.3 c 0,65.37 -28.4,98.05 -84.9,98.05 -41.9,0 -90.1,-16.33 -144.6,-49.03 l -57.9,115.67 c 69.7,44.01 145.3,66.06 227,66.06 74.2,0 130.7,-21.28 169.4,-63.83 38.7,-42.56 58.2,-102.8 58.2,-180.76 v -470.22 h -122.7"
         style="fill:#393536;fill-opacity:1;fill-rule:nonzero;stroke:none"
         transform="matrix(0.13333333,0,0,-0.13333333,0,1001.7867)" />
      <path
         id="path14"
         d="m 14874.7,3598.86 h -167.2 v 978.16 h 167.2 v -978.16"
         style="fill:#393536;fill-opacity:1;fill-rule:nonzero;stroke:none"
         transform="matrix(0.13333333,0,0,-0.13333333,0,1001.7867)" />
      <path
         id="path15"
         d="m 15752.3,4062.21 c 0,205.33 -56.6,308.03 -169.8,308.03 h -68.4 v -621.76 h 55.3 c 62.4,0 108.5,26.11 138.3,78.24 29.7,52.22 44.6,130.66 44.6,235.49 z m 175.4,5.03 c 0,-151.73 -30.9,-267.69 -92.7,-347.97 -61.8,-80.27 -150.8,-120.41 -266.9,-120.41 h -225 v 919.07 h 245.7 c 106.9,0 190.1,-39.47 249.6,-118.48 59.5,-79.01 89.3,-189.76 89.3,-332.21"
         style="fill:#393536;fill-opacity:1;fill-rule:nonzero;stroke:none"
         transform="matrix(0.13333333,0,0,-0.13333333,0,1001.7867)" />
      <path
         id="path16"
         d="m 16249.6,3717.05 c 30.5,0 55,13.73 73.2,41.2 18.3,27.47 27.4,64.02 27.4,109.67 v 59.09 l -51.6,-2.51 c -38.2,-2.03 -66.2,-12.96 -84,-32.69 -17.7,-19.63 -26.6,-49.04 -26.6,-88.01 0,-57.83 20.5,-86.75 61.6,-86.75 z m 145.1,-118.19 -33.2,95.56 h -3.8 c -24.8,-41 -50.3,-69.34 -76.7,-84.81 -26.4,-15.58 -59.8,-23.31 -100,-23.31 -51.6,0 -92.1,19.33 -121.6,57.84 -29.6,38.58 -44.4,92.24 -44.4,160.92 0,73.8 20.2,128.53 60.8,164.41 40.4,35.78 100.8,55.62 181.3,59.39 l 93.1,3.76 v 50.3 c 0,65.37 -28.4,98.05 -85,98.05 -41.8,0 -90,-16.33 -144.6,-49.03 l -57.8,115.67 c 69.6,44.01 145.3,66.06 227,66.06 74.2,0 130.7,-21.28 169.4,-63.83 38.7,-42.56 58.2,-102.8 58.2,-180.76 v -470.22 h -122.7"
         style="fill:#393536;fill-opacity:1;fill-rule:nonzero;stroke:none"
         transform="matrix(0.13333333,0,0,-0.13333333,0,1001.7867)" />
      <path
         id="path17"
         d="m 16895.8,3727.78 c 23.4,0 48.8,5.8 76,17.61 v -130.76 c -27.2,-18.85 -68.1,-28.33 -122.5,-28.33 -60.9,0 -105.8,18.18 -135.2,54.34 -29.3,36.28 -44,90.72 -44,163.16 v 362.77 h -67.9 v 74.76 l 87.4,60.35 42.8,148.36 h 106.8 v -150.88 h 127 v -132.59 h -127 v -368.38 c 0,-47 18.9,-70.41 56.6,-70.41"
         style="fill:#393536;fill-opacity:1;fill-rule:nonzero;stroke:none"
         transform="matrix(0.13333333,0,0,-0.13333333,0,1001.7867)" />
      <path
         id="path18"
         d="m 17267.9,3717.05 c 30.6,0 55.1,13.73 73.3,41.2 18.2,27.47 27.3,64.02 27.3,109.67 v 59.09 l -51.5,-2.51 c -38.2,-2.03 -66.2,-12.96 -84,-32.69 -17.8,-19.63 -26.7,-49.04 -26.7,-88.01 0,-57.83 20.5,-86.75 61.6,-86.75 z m 145.2,-118.19 -33.3,95.56 h -3.7 c -24.8,-41 -50.3,-69.34 -76.7,-84.81 -26.4,-15.58 -59.8,-23.31 -100,-23.31 -51.6,0 -92.1,19.33 -121.6,57.84 -29.6,38.58 -44.4,92.24 -44.4,160.92 0,73.8 20.2,128.53 60.8,164.41 40.4,35.78 100.8,55.62 181.3,59.39 l 93,3.76 v 50.3 c 0,65.37 -28.3,98.05 -84.9,98.05 -41.9,0 -90,-16.33 -144.6,-49.03 l -57.8,115.67 c 69.6,44.01 145.3,66.06 227,66.06 74.2,0 130.6,-21.28 169.4,-63.83 38.7,-42.56 58.1,-102.8 58.1,-180.76 v -470.22 h -122.6"
         style="fill:#393536;fill-opacity:1;fill-rule:nonzero;stroke:none"
         transform="matrix(0.13333333,0,0,-0.13333333,0,1001.7867)" />
      <path
         id="path19"
         d="m 7951.64,3073.24 c 0,27.18 -5.56,47 -16.63,59.38 -11.12,12.38 -24.42,18.57 -39.94,18.57 -19.3,0 -34.58,-6.88 -45.9,-20.51 -11.31,-13.53 -16.97,-33.36 -16.97,-59.38 0,-23.02 4.93,-44.29 14.8,-63.83 9.82,-19.44 22.09,-39.26 36.74,-59.37 25.59,19.72 43.28,38.78 53.11,57.25 9.86,18.37 14.79,41 14.79,67.89 z m -179.79,-450.78 c 0,-38.97 9.23,-69.53 27.65,-91.78 18.43,-22.14 43.58,-33.27 75.45,-33.27 41.92,0 78.77,15.48 110.64,46.52 l -150.87,217.51 c -41.94,-37.71 -62.87,-84.05 -62.87,-138.98 z m 341.97,-261.55 -44.63,64.17 c -57.01,-51.1 -127.79,-76.77 -212.48,-76.77 -80.46,0 -142.88,22.85 -187.33,68.64 -44.44,45.66 -66.64,108.9 -66.64,189.84 0,103.87 51.12,191.12 153.39,261.51 -32.25,49.82 -53.62,89.27 -64.11,118.19 -10.5,28.92 -15.72,59.47 -15.72,91.77 0,65.39 20.31,117.52 60.98,156.48 40.66,38.98 94.1,58.53 160.3,58.53 63.68,0 114.41,-18.19 152.12,-54.45 37.72,-36.19 56.58,-86.37 56.58,-150.5 0,-44.01 -11.5,-85.87 -34.57,-125.42 -23.07,-39.66 -61.61,-79.7 -115.67,-120.41 l 128.24,-180.37 c 14.26,25.91 25.34,54.84 33.32,86.74 7.98,31.83 14.89,63.44 20.75,94.89 h 145.84 c -15.92,-117.33 -50.73,-221.67 -104.36,-313.07 l 121.96,-169.77 h -187.97"
         style="fill:#393536;fill-opacity:1;fill-rule:nonzero;stroke:none"
         transform="matrix(0.13333333,0,0,-0.13333333,0,1001.7867)" />
      <path
         id="path20"
         d="m 8990.76,2870.82 h 281.01 v -471.47 c -79.65,-33.98 -164.28,-51.04 -253.97,-51.04 -106.87,0 -189.13,40.78 -246.72,122.03 -57.63,81.33 -86.46,198.45 -86.46,351.44 0,147.49 32.98,262.96 99.04,346.33 65.96,83.47 158.26,125.16 276.88,125.16 73.36,0 143.32,-18.87 209.96,-56.59 l -54.06,-139.55 c -51.98,30.16 -100.58,45.26 -145.84,45.26 -64.95,0 -116.39,-29.01 -154.36,-87.14 -37.91,-58.03 -56.86,-137.13 -56.86,-237.23 0,-103.09 13.74,-182.11 41.2,-237.04 27.42,-54.84 67.36,-82.31 119.72,-82.31 27.67,0 55.76,3.57 84.24,10.64 v 210.63 h -113.78 v 150.88"
         style="fill:#393536;fill-opacity:1;fill-rule:nonzero;stroke:none"
         transform="matrix(0.13333333,0,0,-0.13333333,0,1001.7867)" />
      <path
         id="path21"
         d="m 9535.5,2712.4 c 0,-72.91 7.97,-128.05 23.88,-165.37 15.91,-37.23 41.49,-55.9 76.69,-55.9 67.07,0 100.58,73.69 100.58,221.27 0,73.32 -8.08,128.14 -24.17,164.32 -16.16,36.27 -41.64,54.45 -76.41,54.45 -35.2,0 -60.78,-18.18 -76.69,-54.45 -15.91,-36.18 -23.88,-91 -23.88,-164.32 z m 372.15,0 c 0,-114.88 -24.33,-204.25 -72.92,-268.18 -48.61,-63.85 -115.24,-95.91 -199.92,-95.91 -53.62,0 -101.01,14.73 -142.07,44.07 -41.05,29.41 -72.72,71.57 -94.92,126.7 -22.19,55.12 -33.32,119.53 -33.32,193.32 0,113.54 24.08,202.32 72.31,266.15 48.2,63.94 115.03,95.95 200.52,95.95 82.54,0 148.27,-32.6 197.1,-97.78 48.79,-65.19 73.22,-153.28 73.22,-264.32"
         style="fill:#393536;fill-opacity:1;fill-rule:nonzero;stroke:none"
         transform="matrix(0.13333333,0,0,-0.13333333,0,1001.7867)" />
      <path
         id="path22"
         d="m 10137.1,2360.91 -182.94,700.34 h 173.54 l 89.2,-405.42 c 3.8,-18.85 8.3,-46.43 13.6,-82.7 5.2,-36.26 8.4,-62.38 9.7,-78.23 h 2.5 c 0.4,12.57 2.2,30.56 5.4,54.06 3.1,23.4 6.4,45.07 9.7,64.7 3.3,19.73 35.6,168.95 96.8,447.59 h 173.5 l -183.6,-700.34 h -207.4"
         style="fill:#393536;fill-opacity:1;fill-rule:nonzero;stroke:none"
         transform="matrix(0.13333333,0,0,-0.13333333,0,1001.7867)" />
      <path
         id="path23"
         d="m 10833,2945.57 c -23.9,0 -43.6,-12.65 -59.1,-38 -15.5,-25.34 -24.5,-64.6 -27,-117.88 h 169.7 c -0.8,51.15 -8.6,89.94 -23.3,116.33 -14.6,26.41 -34.7,39.55 -60.3,39.55 z m 24.5,-597.26 c -87.6,0 -156.6,31.2 -207.2,93.4 -50.4,62.27 -75.7,150.39 -75.7,264.41 0,115.66 22.8,206.01 68.5,270.89 45.7,64.99 109.4,97.49 191.1,97.49 76.3,0 136.5,-27.76 180.5,-83.37 44,-55.51 66,-133.37 66,-233.46 v -89.27 h -336.4 c 1.3,-62.46 14.1,-108.89 38.4,-139.26 24.3,-30.38 57.8,-45.56 100.6,-45.56 54.5,0 110.2,16.94 167.2,50.87 v -137.62 c -53.6,-32.35 -118,-48.52 -193,-48.52"
         style="fill:#393536;fill-opacity:1;fill-rule:nonzero;stroke:none"
         transform="matrix(0.13333333,0,0,-0.13333333,0,1001.7867)" />
      <path
         id="path24"
         d="m 11489.9,3074.5 c 20.5,0 40.7,-3.2 60.3,-9.48 l -19.4,-162.19 c -11.8,4.25 -27.1,6.28 -45.9,6.28 -40.7,0 -71.9,-16.05 -93.7,-48.06 -21.8,-32.1 -32.7,-78.73 -32.7,-139.84 v -360.3 h -167.2 v 700.34 h 137.7 l 18.8,-109.38 h 5.7 c 18.4,43.99 38.5,75.43 60.3,94.29 21.8,18.86 47.2,28.34 76.1,28.34"
         style="fill:#393536;fill-opacity:1;fill-rule:nonzero;stroke:none"
         transform="matrix(0.13333333,0,0,-0.13333333,0,1001.7867)" />
      <path
         id="path25"
         d="m 11973.9,2360.91 v 417.45 c 0,50.77 -6,89.08 -18.2,115.09 -12.1,25.92 -31.9,38.98 -59.1,38.98 -36,0 -62.4,-17.99 -79.2,-53.77 -16.8,-35.89 -25.1,-96.34 -25.1,-181.34 v -336.41 h -167.2 v 700.34 h 132.6 l 20.1,-89.85 h 10.7 c 15.1,32.21 36.7,57.46 64.8,75.73 28,18.17 60.9,27.37 98.6,27.37 63.7,0 111.4,-21.86 143,-65.38 31.7,-43.62 47.5,-107.35 47.5,-191.1 v -457.11 h -168.5"
         style="fill:#393536;fill-opacity:1;fill-rule:nonzero;stroke:none"
         transform="matrix(0.13333333,0,0,-0.13333333,0,1001.7867)" />
      <path
         id="path26"
         d="m 12475.6,2479.14 c 30.6,0 55,13.73 73.2,41.2 18.3,27.46 27.4,64.01 27.4,109.67 v 59.09 l -51.6,-2.52 c -38.1,-2.02 -66.1,-12.96 -83.9,-32.69 -17.8,-19.62 -26.7,-49.03 -26.7,-88 0,-57.84 20.5,-86.75 61.6,-86.75 z m 145.2,-118.23 -33.3,95.59 h -3.8 c -24.7,-41 -50.3,-69.34 -76.7,-84.85 -26.4,-15.58 -59.7,-23.34 -99.9,-23.34 -51.6,0 -92.1,19.38 -121.7,57.91 -29.5,38.58 -44.3,92.25 -44.3,160.92 0,73.8 20.2,128.54 60.7,164.41 40.4,35.79 100.9,55.61 181.3,59.39 l 93.1,3.76 v 50.3 c 0,65.37 -28.3,98.06 -84.9,98.06 -41.9,0 -90.1,-16.34 -144.6,-49.03 l -57.8,115.67 c 69.6,44.01 145.2,66.05 226.9,66.05 74.2,0 130.7,-21.27 169.5,-63.83 38.7,-42.55 58.1,-102.81 58.1,-180.75 v -470.26 h -122.6"
         style="fill:#393536;fill-opacity:1;fill-rule:nonzero;stroke:none"
         transform="matrix(0.13333333,0,0,-0.13333333,0,1001.7867)" />
      <path
         id="path27"
         d="m 13227.4,2360.91 v 417.45 c 0,50.77 -6.1,89.08 -18.2,115.09 -12.1,25.92 -31.9,38.98 -59.1,38.98 -36,0 -62.4,-17.99 -79.2,-53.77 -16.8,-35.89 -25.1,-96.34 -25.1,-181.34 v -336.41 h -167.3 v 700.34 h 132.7 l 20.1,-89.85 h 10.7 c 15.1,32.21 36.6,57.46 64.7,75.73 28.1,18.17 61,27.37 98.7,27.37 63.7,0 111.4,-21.86 143,-65.38 31.7,-43.62 47.5,-107.35 47.5,-191.1 v -457.11 h -168.5"
         style="fill:#393536;fill-opacity:1;fill-rule:nonzero;stroke:none"
         transform="matrix(0.13333333,0,0,-0.13333333,0,1001.7867)" />
      <path
         id="path28"
         d="m 13762.4,2348.31 c -83.4,0 -146.9,30.41 -190.5,91.27 -43.5,60.74 -65.4,150 -65.4,267.79 0,123.21 20.7,215.19 61.9,275.93 41.3,60.83 105.1,91.2 191.5,91.2 25.9,0 53.2,-3.78 81.7,-11.32 28.5,-7.54 54.1,-18.48 76.7,-32.68 l -47.8,-130.19 c -34.8,20.62 -65.5,30.86 -92.4,30.86 -35.6,0 -61.3,-18.57 -77,-55.7 -15.8,-37.04 -23.6,-92.66 -23.6,-166.84 0,-72.53 7.7,-126.7 23.3,-162.57 15.5,-35.78 40.8,-53.68 76,-53.68 42,0 85.7,14.62 131.5,44 v -147.09 c -44,-27.32 -92.7,-40.98 -145.9,-40.98"
         style="fill:#393536;fill-opacity:1;fill-rule:nonzero;stroke:none"
         transform="matrix(0.13333333,0,0,-0.13333333,0,1001.7867)" />
      <path
         id="path29"
         d="m 14242.7,2945.57 c -23.9,0 -43.6,-12.65 -59.1,-38 -15.6,-25.34 -24.6,-64.6 -27.1,-117.88 h 169.8 c -0.8,51.15 -8.7,89.94 -23.3,116.33 -14.7,26.41 -34.8,39.55 -60.3,39.55 z m 24.5,-597.26 c -87.6,0 -156.6,31.2 -207.2,93.4 -50.5,62.27 -75.7,150.39 -75.7,264.41 0,115.66 22.8,206.01 68.5,270.89 45.7,64.99 109.4,97.49 191.1,97.49 76.3,0 136.4,-27.76 180.4,-83.37 44,-55.51 66.1,-133.37 66.1,-233.46 V 2668.4 H 14154 c 1.3,-62.46 14,-108.89 38.4,-139.26 24.3,-30.38 57.8,-45.56 100.6,-45.56 54.4,0 110.1,16.94 167.2,50.87 v -137.62 c -53.7,-32.35 -118,-48.52 -193,-48.52"
         style="fill:#393536;fill-opacity:1;fill-rule:nonzero;stroke:none"
         transform="matrix(0.13333333,0,0,-0.13333333,0,1001.7867)" />
      <path
         id="path30"
         d="m 14959.9,2360.91 v 919.11 h 160.9 v -919.11 h -160.9"
         style="fill:#393536;fill-opacity:1;fill-rule:nonzero;stroke:none"
         transform="matrix(0.13333333,0,0,-0.13333333,0,1001.7867)" />
      <path
         id="path31"
         d="m 15641.1,2360.91 v 417.45 c 0,50.77 -6.1,89.08 -18.2,115.09 -12.2,25.92 -31.9,38.98 -59.1,38.98 -36.1,0 -62.5,-17.99 -79.2,-53.77 -16.9,-35.89 -25.2,-96.34 -25.2,-181.34 v -336.41 h -167.2 v 700.34 h 132.6 l 20.1,-89.85 h 10.8 c 15,32.21 36.6,57.46 64.7,75.73 28.1,18.17 61,27.37 98.7,27.37 63.6,0 111.3,-21.86 142.9,-65.38 31.8,-43.62 47.5,-107.35 47.5,-191.1 v -457.11 h -168.4"
         style="fill:#393536;fill-opacity:1;fill-rule:nonzero;stroke:none"
         transform="matrix(0.13333333,0,0,-0.13333333,0,1001.7867)" />
      <path
         id="path32"
         d="M 16113.2,2360.91 H 15946 v 700.34 h 167.2 z m -174.2,883.31 c 0,27.66 8.1,49.53 24.2,65.67 16.2,16.16 38.7,24.18 67.6,24.18 27.3,0 49,-8.02 65.4,-24.18 16.3,-16.14 24.6,-38.01 24.6,-65.67 0,-28.53 -8.5,-50.67 -25.2,-66.34 -16.8,-15.76 -38.4,-23.61 -64.8,-23.61 -27.7,0 -49.8,7.85 -66.6,23.61 -16.8,15.67 -25.2,37.81 -25.2,66.34"
         style="fill:#393536;fill-opacity:1;fill-rule:nonzero;stroke:none"
         transform="matrix(0.13333333,0,0,-0.13333333,0,1001.7867)" />
      <path
         id="path33"
         d="m 16499.8,2489.87 c 23.5,0 48.8,5.8 76.1,17.6 v -130.78 c -27.3,-18.88 -68.1,-28.38 -122.7,-28.38 -60.7,0 -105.8,18.23 -135.1,54.42 -29.4,36.28 -44,90.71 -44,163.16 v 362.77 h -67.9 v 74.76 l 87.4,60.34 42.7,148.36 h 106.9 v -150.87 h 127 v -132.59 h -127 v -368.38 c 0,-47 18.8,-70.41 56.6,-70.41"
         style="fill:#393536;fill-opacity:1;fill-rule:nonzero;stroke:none"
         transform="matrix(0.13333333,0,0,-0.13333333,0,1001.7867)" />
      <path
         id="path34"
         d="m 16842.4,2360.91 h -167.2 v 700.34 h 167.2 z m -174.2,883.31 c 0,27.66 8.2,49.53 24.2,65.67 16.2,16.16 38.7,24.18 67.6,24.18 27.3,0 49.1,-8.02 65.4,-24.18 16.3,-16.14 24.6,-38.01 24.6,-65.67 0,-28.53 -8.5,-50.67 -25.2,-66.34 -16.8,-15.76 -38.4,-23.61 -64.8,-23.61 -27.6,0 -49.8,7.85 -66.6,23.61 -16.7,15.67 -25.2,37.81 -25.2,66.34"
         style="fill:#393536;fill-opacity:1;fill-rule:nonzero;stroke:none"
         transform="matrix(0.13333333,0,0,-0.13333333,0,1001.7867)" />
      <path
         id="path35"
         d="m 17183.7,2479.14 c 30.7,0 55,13.73 73.2,41.2 18.3,27.46 27.4,64.01 27.4,109.67 v 59.09 l -51.6,-2.52 c -38.1,-2.02 -66,-12.96 -83.9,-32.69 -17.8,-19.62 -26.7,-49.03 -26.7,-88 0,-57.84 20.6,-86.75 61.6,-86.75 z m 145.3,-118.23 -33.4,95.59 h -3.8 c -24.6,-41 -50.3,-69.34 -76.7,-84.85 -26.4,-15.58 -59.6,-23.34 -99.9,-23.34 -51.5,0 -92.1,19.38 -121.6,57.91 -29.6,38.58 -44.3,92.25 -44.3,160.92 0,73.8 20.2,128.54 60.6,164.41 40.4,35.79 100.9,55.61 181.4,59.39 l 93,3.76 v 50.3 c 0,65.37 -28.3,98.06 -84.8,98.06 -42,0 -90.2,-16.34 -144.6,-49.03 l -57.8,115.67 c 69.5,44.01 145.1,66.05 226.8,66.05 74.2,0 130.7,-21.27 169.5,-63.83 38.8,-42.55 58.1,-102.81 58.1,-180.75 V 2360.91 H 17329"
         style="fill:#393536;fill-opacity:1;fill-rule:nonzero;stroke:none"
         transform="matrix(0.13333333,0,0,-0.13333333,0,1001.7867)" />
      <path
         id="path36"
         d="m 17829.9,2489.87 c 23.5,0 48.9,5.8 76.2,17.6 v -130.78 c -27.3,-18.88 -68.1,-28.38 -122.7,-28.38 -60.7,0 -105.8,18.23 -135.1,54.42 -29.4,36.28 -44,90.71 -44,163.16 v 362.77 h -67.9 v 74.76 l 87.3,60.34 42.8,148.36 h 106.9 v -150.87 h 126.9 v -132.59 h -126.9 v -368.38 c 0,-47 18.8,-70.41 56.5,-70.41"
         style="fill:#393536;fill-opacity:1;fill-rule:nonzero;stroke:none"
         transform="matrix(0.13333333,0,0,-0.13333333,0,1001.7867)" />
      <path
         id="path37"
         d="m 18172.6,2360.91 h -167.2 v 700.34 h 167.2 z m -174.2,883.31 c 0,27.66 8.1,49.53 24.2,65.67 16.1,16.16 38.7,24.18 67.6,24.18 27.3,0 49,-8.02 65.4,-24.18 16.3,-16.14 24.5,-38.01 24.5,-65.67 0,-28.53 -8.4,-50.67 -25.1,-66.34 -16.8,-15.76 -38.4,-23.61 -64.8,-23.61 -27.7,0 -49.8,7.85 -66.6,23.61 -16.8,15.67 -25.2,37.81 -25.2,66.34"
         style="fill:#393536;fill-opacity:1;fill-rule:nonzero;stroke:none"
         transform="matrix(0.13333333,0,0,-0.13333333,0,1001.7867)" />
      <path
         id="path38"
         d="m 18427.8,2360.91 -183,700.34 h 173.5 l 89.3,-405.42 c 3.8,-18.85 8.3,-46.43 13.5,-82.7 5.3,-36.26 8.5,-62.38 9.8,-78.23 h 2.5 c 0.4,12.57 2.1,30.56 5.4,54.06 3,23.4 6.3,45.07 9.7,64.7 3.3,19.73 35.6,168.95 96.8,447.59 h 173.5 l -183.5,-700.34 h -207.5"
         style="fill:#393536;fill-opacity:1;fill-rule:nonzero;stroke:none"
         transform="matrix(0.13333333,0,0,-0.13333333,0,1001.7867)" />
      <path
         id="path39"
         d="m 19123.7,2945.57 c -23.9,0 -43.6,-12.65 -59.1,-38 -15.5,-25.34 -24.5,-64.6 -27,-117.88 h 169.7 c -0.9,51.15 -8.6,89.94 -23.3,116.33 -14.6,26.41 -34.7,39.55 -60.3,39.55 z m 24.5,-597.26 c -87.6,0 -156.7,31.2 -207.1,93.4 -50.5,62.27 -75.8,150.39 -75.8,264.41 0,115.66 22.9,206.01 68.5,270.89 45.8,64.99 109.4,97.49 191.1,97.49 76.3,0 136.5,-27.76 180.5,-83.37 44,-55.51 65.9,-133.37 65.9,-233.46 v -89.27 h -336.2 c 1.2,-62.46 14,-108.89 38.3,-139.26 24.3,-30.38 57.8,-45.56 100.5,-45.56 54.6,0 110.3,16.94 167.3,50.87 v -137.62 c -53.6,-32.35 -118,-48.52 -193,-48.52"
         style="fill:#393536;fill-opacity:1;fill-rule:nonzero;stroke:none"
         transform="matrix(0.13333333,0,0,-0.13333333,0,1001.7867)" />
      <path
         id="path40"
         d="m 7049.75,6260.68 c -623.79,0 -634.96,0 -634.96,0 0,0 11.17,-1119.44 11.17,-1949.13 0,-985.79 -11.17,-1949.36 -11.17,-1949.36 629.49,0 634.96,0 634.96,0 0,0 -11.13,963.57 -11.13,1949.36 0,829.69 11.13,1949.13 11.13,1949.13 z M 5273.67,4216.77 h 256.34 V 2935.81 c 0,-22.23 -55.7,-50 -178.48,-50 -297.1,0 -397.54,208.22 -399.9,1309.88 l 0.91,-0.2 c 2.32,95.07 -0.1,279.6 -0.1,377.57 0,1364.7 -594.53,1687.62 -1335.12,1687.62 h -690.61 c 0,0 0,-38.97 0,-111.41 V 2362.19 h 718.34 c 342.94,0 552.27,88.33 685.06,203.9 -87.73,155.79 -146.28,350.29 -183.9,583.36 -148.8,-160.35 -352.28,-196.81 -484.38,-196.81 l -111.32,5.41 v 2734.74 h 105.9 c 199.51,0 627.47,-180.57 631.43,-1165.39 -3.48,-100.86 -5.42,-213.54 -5.42,-344 0,-1492.56 217.27,-1904.86 1058.03,-1904.86 317.46,0 590.39,50.29 768.53,167.04 l 5.66,2283.67 h -840.97 z m -574.52,1854.84 c 158.47,-162.38 273.36,-378.34 348.03,-644.78 114.99,199.71 307.88,304.84 579.93,304.84 144.74,0 311.75,-44.58 395.41,-111.41 38.83,111.41 170.64,515.18 170.64,515.18 -143.61,108.7 -353.57,200.87 -718.85,200.87 -325.97,0 -604.75,-81.72 -775.16,-264.7 z M 1256.3,2362.19 h 1408.86 c 0,0 0,33.47 0,556.99 h -785.12 v 1269.63 h 673.75 c 0,0 0,100.49 0,568.19 h -673.75 v 946.91 h 824.18 c 0,0 0,55.71 0,556.77 H 1256.3 V 2362.19"
         style="fill:#58c6a8;fill-opacity:1;fill-rule:nonzero;stroke:none"
         transform="matrix(0.13333333,0,0,-0.13333333,0,1001.7867)" />
      <path
         id="path41"
         d="M 7049.75,1252.13 H 1256.3 v 553 h 5793.45 v -553"
         style="fill:#393536;fill-opacity:1;fill-rule:nonzero;stroke:none"
         transform="matrix(0.13333333,0,0,-0.13333333,0,1001.7867)" />
    </g>
  </g>
</svg>
